<svg width="192" height="38" viewBox="0 0 192 38" fill="none" xmlns="http://www.w3.org/2000/svg">
<path d="M13.7471 2.03711C14.9066 1.36586 16.3187 1.32372 17.5098 1.91113L17.7441 2.03711L28.4941 8.26074C29.7295 8.97588 30.4921 10.2968 30.4922 11.7275V24.2725C30.4921 25.6138 29.8222 26.859 28.7207 27.5986L28.4951 27.7393H28.4941L17.7441 33.9629C16.5848 34.6339 15.1733 34.676 13.9824 34.0889L13.7471 33.9629L2.99707 27.7393C1.76193 27.0242 1.00009 25.7032 1 24.2725V11.7275C1.00011 10.3861 1.66982 9.14099 2.77148 8.40137L2.99707 8.26074L13.7471 2.03711Z" fill="url(#paint0_linear_190_820)" fill-opacity="0.2" stroke="url(#paint1_linear_190_820)" stroke-width="2"/>
<path opacity="0.8" d="M14.5225 8.7373C15.2321 8.32662 16.0962 8.3008 16.8252 8.66016L16.9697 8.7373L23.1123 12.2939C23.8685 12.7318 24.335 13.5404 24.335 14.416V21.584C24.335 22.4048 23.9252 23.1673 23.251 23.6201L23.1123 23.7061L16.9697 27.2627C16.2599 27.6736 15.3951 27.6993 14.666 27.3398L14.5225 27.2627L8.37891 23.7061C7.62283 23.2682 7.15625 22.4595 7.15625 21.584V14.416C7.15625 13.595 7.56665 12.8327 8.24121 12.3799L8.37891 12.2939L14.5225 8.7373Z" fill="url(#paint2_linear_190_820)" stroke="url(#paint3_linear_190_820)" stroke-width="0.817308"/>
<path d="M50.8312 5.95312C50.7649 5.33286 50.4855 4.84991 49.9931 4.50426C49.5054 4.15862 48.871 3.9858 48.0897 3.9858C47.5405 3.9858 47.0694 4.06866 46.6764 4.23438C46.2834 4.40009 45.9827 4.625 45.7744 4.90909C45.566 5.19318 45.4595 5.51752 45.4548 5.8821C45.4548 6.18513 45.5234 6.44792 45.6607 6.67045C45.8028 6.89299 45.9945 7.08239 46.236 7.23864C46.4775 7.39015 46.745 7.51799 47.0386 7.62216C47.3321 7.72633 47.6281 7.81392 47.9264 7.88494L49.29 8.22585C49.8392 8.35369 50.3672 8.52651 50.8738 8.74432C51.3852 8.96212 51.8421 9.23674 52.2445 9.56818C52.6517 9.89962 52.9737 10.2997 53.2104 10.7685C53.4472 11.2372 53.5656 11.7865 53.5656 12.4162C53.5656 13.2685 53.3478 14.0189 52.9122 14.6676C52.4765 15.3116 51.8468 15.8158 51.0229 16.1804C50.2038 16.5402 49.2119 16.7202 48.0471 16.7202C46.9155 16.7202 45.933 16.545 45.0997 16.1946C44.2711 15.8442 43.6224 15.3329 43.1536 14.6605C42.6896 13.9882 42.4387 13.169 42.4008 12.2031H44.9931C45.031 12.7098 45.1872 13.1312 45.4619 13.4673C45.7365 13.8035 46.094 14.0545 46.5343 14.2202C46.9794 14.3859 47.4765 14.4688 48.0258 14.4688C48.5987 14.4688 49.1006 14.3835 49.5315 14.2131C49.9671 14.0379 50.308 13.7964 50.5542 13.4886C50.8004 13.1761 50.9259 12.8116 50.9306 12.3949C50.9259 12.0161 50.8146 11.7036 50.5968 11.4574C50.379 11.2064 50.0736 10.9981 49.6806 10.8324C49.2924 10.6619 48.8378 10.5104 48.317 10.3778L46.6622 9.9517C45.4642 9.64394 44.5173 9.17756 43.8212 8.55256C43.13 7.92282 42.7843 7.08712 42.7843 6.04545C42.7843 5.18845 43.0163 4.43797 43.4803 3.79403C43.9491 3.15009 44.5859 2.65057 45.3908 2.29545C46.1958 1.93561 47.1072 1.75568 48.1252 1.75568C49.1574 1.75568 50.0618 1.93561 50.8383 2.29545C51.6195 2.65057 52.2327 3.14536 52.6778 3.77983C53.1229 4.40956 53.3525 5.134 53.3667 5.95312H50.8312ZM58.9402 16.7202C58.2489 16.7202 57.6263 16.5971 57.0723 16.3509C56.5231 16.0999 56.0875 15.7306 55.7655 15.2429C55.4483 14.7552 55.2896 14.1539 55.2896 13.4389C55.2896 12.8234 55.4033 12.3144 55.6305 11.9119C55.8578 11.5095 56.168 11.1875 56.5609 10.946C56.9539 10.7045 57.3966 10.5223 57.8891 10.3991C58.3862 10.2713 58.9 10.179 59.4303 10.1222C60.0695 10.0559 60.5879 9.99669 60.9857 9.9446C61.3834 9.88778 61.6722 9.80256 61.8521 9.68892C62.0368 9.57055 62.1291 9.38826 62.1291 9.14205V9.09943C62.1291 8.56439 61.9705 8.15009 61.6533 7.85653C61.336 7.56297 60.8791 7.41619 60.2825 7.41619C59.6528 7.41619 59.1533 7.5535 58.784 7.82812C58.4194 8.10275 58.1732 8.42708 58.0453 8.80114L55.6448 8.46023C55.8341 7.79735 56.1466 7.24337 56.5823 6.7983C57.0179 6.34848 57.5505 6.01231 58.1803 5.78977C58.81 5.5625 59.506 5.44886 60.2683 5.44886C60.7939 5.44886 61.3171 5.51042 61.8379 5.63352C62.3588 5.75663 62.8346 5.96023 63.2655 6.24432C63.6964 6.52367 64.042 6.90483 64.3024 7.38778C64.5676 7.87074 64.7002 8.47443 64.7002 9.19886V16.5H62.2286V15.0014H62.1433C61.9871 15.3045 61.7669 15.5885 61.4828 15.8537C61.2035 16.1141 60.8507 16.3248 60.4246 16.4858C60.0032 16.642 59.5084 16.7202 58.9402 16.7202ZM59.6078 14.831C60.1239 14.831 60.5714 14.7292 60.9502 14.5256C61.3289 14.3172 61.6201 14.0426 61.8237 13.7017C62.0321 13.3608 62.1362 12.9891 62.1362 12.5866V11.3011C62.0557 11.3674 61.9184 11.429 61.7243 11.4858C61.5349 11.5426 61.3218 11.5923 61.0851 11.6349C60.8484 11.6776 60.614 11.7154 60.382 11.7486C60.15 11.7817 59.9487 11.8101 59.7783 11.8338C59.3948 11.8859 59.0515 11.9711 58.7484 12.0895C58.4454 12.2079 58.2063 12.3736 58.0311 12.5866C57.8559 12.795 57.7683 13.0649 57.7683 13.3963C57.7683 13.8698 57.9412 14.2273 58.2868 14.4688C58.6324 14.7102 59.0728 14.831 59.6078 14.831ZM68.4928 20.5909C68.1424 20.5909 67.818 20.5625 67.5198 20.5057C67.2262 20.4536 66.9918 20.392 66.8166 20.321L67.4132 18.3182C67.7873 18.4271 68.1211 18.4792 68.4146 18.4744C68.7082 18.4697 68.9662 18.3774 69.1888 18.1974C69.4161 18.0223 69.6078 17.7287 69.7641 17.3168L69.9842 16.7273L66.0283 5.59091H68.7555L71.2698 13.8295H71.3834L73.9047 5.59091H76.6391L72.2712 17.821C72.0676 18.3987 71.7977 18.8935 71.4615 19.3054C71.1253 19.7221 70.7134 20.0393 70.2257 20.2571C69.7428 20.4796 69.1651 20.5909 68.4928 20.5909ZM82.8766 16.7131C81.7829 16.7131 80.8383 16.4858 80.0428 16.0312C79.2521 15.572 78.6437 14.9233 78.2176 14.0852C77.7914 13.2424 77.5783 12.2505 77.5783 11.1094C77.5783 9.98722 77.7914 9.00237 78.2176 8.15483C78.6484 7.30256 79.2497 6.63968 80.0215 6.16619C80.7933 5.68797 81.7 5.44886 82.7417 5.44886C83.414 5.44886 84.0485 5.55777 84.6451 5.77557C85.2464 5.98864 85.7767 6.32008 86.236 6.76989C86.7 7.2197 87.0646 7.79261 87.3298 8.48864C87.5949 9.17992 87.7275 10.0038 87.7275 10.9602V11.7486H78.7857V10.0156H85.263C85.2583 9.5232 85.1517 9.08523 84.9434 8.7017C84.7351 8.31345 84.4439 8.00805 84.0698 7.78551C83.7005 7.56297 83.2696 7.4517 82.7772 7.4517C82.2516 7.4517 81.79 7.57955 81.3923 7.83523C80.9945 8.08617 80.6844 8.41761 80.4619 8.82955C80.2441 9.23674 80.1328 9.68419 80.1281 10.1719V11.6847C80.1281 12.3191 80.2441 12.8636 80.4761 13.3182C80.7081 13.768 81.0324 14.1136 81.4491 14.3551C81.8658 14.5919 82.3534 14.7102 82.9122 14.7102C83.2862 14.7102 83.6247 14.6581 83.9278 14.554C84.2308 14.4451 84.4936 14.2865 84.7161 14.0781C84.9387 13.8698 85.1068 13.6117 85.2204 13.304L87.621 13.5739C87.4694 14.2083 87.1806 14.7623 86.7545 15.2358C86.3331 15.7045 85.7933 16.0691 85.1352 16.3295C84.477 16.5852 83.7242 16.7131 82.8766 16.7131ZM93.9509 16.6918C93.0939 16.6918 92.3268 16.4716 91.6497 16.0312C90.9726 15.5909 90.4376 14.9517 90.0446 14.1136C89.6516 13.2756 89.4551 12.2576 89.4551 11.0597C89.4551 9.84754 89.654 8.82481 90.0517 7.99148C90.4542 7.15341 90.9963 6.52131 91.6781 6.09517C92.36 5.6643 93.1199 5.44886 93.958 5.44886C94.5972 5.44886 95.1227 5.55777 95.5347 5.77557C95.9466 5.98864 96.2733 6.24669 96.5148 6.54972C96.7563 6.84801 96.9433 7.12973 97.0759 7.39489H97.1824V1.95455H99.7605V16.5H97.2321V14.7812H97.0759C96.9433 15.0464 96.7515 15.3281 96.5006 15.6264C96.2496 15.92 95.9182 16.1709 95.5063 16.3793C95.0943 16.5876 94.5759 16.6918 93.9509 16.6918ZM94.6682 14.5824C95.2127 14.5824 95.6767 14.4356 96.0602 14.142C96.4438 13.8437 96.735 13.4295 96.9338 12.8991C97.1327 12.3688 97.2321 11.7509 97.2321 11.0455C97.2321 10.34 97.1327 9.7268 96.9338 9.20597C96.7397 8.68513 96.4509 8.2803 96.0673 7.99148C95.6886 7.70265 95.2222 7.55824 94.6682 7.55824C94.0953 7.55824 93.6171 7.70739 93.2335 8.00568C92.85 8.30398 92.5612 8.71591 92.3671 9.24148C92.1729 9.76705 92.0759 10.3684 92.0759 11.0455C92.0759 11.7273 92.1729 12.3357 92.3671 12.8707C92.5659 13.401 92.8571 13.8201 93.2406 14.1278C93.6289 14.4309 94.1047 14.5824 94.6682 14.5824ZM109.443 16.5H106.63L111.751 1.95455H115.004L120.132 16.5H117.319L113.434 4.9375H113.321L109.443 16.5ZM109.535 10.7969H117.205V12.9134H109.535V10.7969ZM122.047 16.5V1.95455H124.618V7.39489H124.725C124.858 7.12973 125.045 6.84801 125.286 6.54972C125.528 6.24669 125.854 5.98864 126.266 5.77557C126.678 5.55777 127.204 5.44886 127.843 5.44886C128.686 5.44886 129.446 5.6643 130.123 6.09517C130.805 6.52131 131.344 7.15341 131.742 7.99148C132.145 8.82481 132.346 9.84754 132.346 11.0597C132.346 12.2576 132.149 13.2756 131.756 14.1136C131.363 14.9517 130.828 15.5909 130.151 16.0312C129.474 16.4716 128.707 16.6918 127.85 16.6918C127.225 16.6918 126.707 16.5876 126.295 16.3793C125.883 16.1709 125.551 15.92 125.3 15.6264C125.054 15.3281 124.862 15.0464 124.725 14.7812H124.576V16.5H122.047ZM124.569 11.0455C124.569 11.7509 124.668 12.3688 124.867 12.8991C125.071 13.4295 125.362 13.8437 125.741 14.142C126.124 14.4356 126.588 14.5824 127.133 14.5824C127.701 14.5824 128.177 14.4309 128.56 14.1278C128.944 13.8201 129.233 13.401 129.427 12.8707C129.626 12.3357 129.725 11.7273 129.725 11.0455C129.725 10.3684 129.628 9.76705 129.434 9.24148C129.24 8.71591 128.951 8.30398 128.567 8.00568C128.184 7.70739 127.706 7.55824 127.133 7.55824C126.583 7.55824 126.117 7.70265 125.734 7.99148C125.35 8.2803 125.059 8.68513 124.86 9.20597C124.666 9.7268 124.569 10.34 124.569 11.0455ZM138.58 16.6918C137.723 16.6918 136.956 16.4716 136.279 16.0312C135.602 15.5909 135.067 14.9517 134.674 14.1136C134.281 13.2756 134.084 12.2576 134.084 11.0597C134.084 9.84754 134.283 8.82481 134.681 7.99148C135.083 7.15341 135.625 6.52131 136.307 6.09517C136.989 5.6643 137.749 5.44886 138.587 5.44886C139.226 5.44886 139.752 5.55777 140.164 5.77557C140.576 5.98864 140.902 6.24669 141.144 6.54972C141.385 6.84801 141.572 7.12973 141.705 7.39489H141.811V1.95455H144.389V16.5H141.861V14.7812H141.705C141.572 15.0464 141.38 15.3281 141.129 15.6264C140.879 15.92 140.547 16.1709 140.135 16.3793C139.723 16.5876 139.205 16.6918 138.58 16.6918ZM139.297 14.5824C139.842 14.5824 140.306 14.4356 140.689 14.142C141.073 13.8437 141.364 13.4295 141.563 12.8991C141.762 12.3688 141.861 11.7509 141.861 11.0455C141.861 10.34 141.762 9.7268 141.563 9.20597C141.369 8.68513 141.08 8.2803 140.696 7.99148C140.317 7.70265 139.851 7.55824 139.297 7.55824C138.724 7.55824 138.246 7.70739 137.862 8.00568C137.479 8.30398 137.19 8.71591 136.996 9.24148C136.802 9.76705 136.705 10.3684 136.705 11.0455C136.705 11.7273 136.802 12.3357 136.996 12.8707C137.195 13.401 137.486 13.8201 137.87 14.1278C138.258 14.4309 138.734 14.5824 139.297 14.5824ZM151.959 16.7131C150.865 16.7131 149.92 16.4858 149.125 16.0312C148.334 15.572 147.726 14.9233 147.3 14.0852C146.873 13.2424 146.66 12.2505 146.66 11.1094C146.66 9.98722 146.873 9.00237 147.3 8.15483C147.73 7.30256 148.332 6.63968 149.104 6.16619C149.875 5.68797 150.782 5.44886 151.824 5.44886C152.496 5.44886 153.131 5.55777 153.727 5.77557C154.328 5.98864 154.859 6.32008 155.318 6.76989C155.782 7.2197 156.147 7.79261 156.412 8.48864C156.677 9.17992 156.81 10.0038 156.81 10.9602V11.7486H147.868V10.0156H154.345C154.34 9.5232 154.234 9.08523 154.025 8.7017C153.817 8.31345 153.526 8.00805 153.152 7.78551C152.783 7.56297 152.352 7.4517 151.859 7.4517C151.334 7.4517 150.872 7.57955 150.474 7.83523C150.077 8.08617 149.766 8.41761 149.544 8.82955C149.326 9.23674 149.215 9.68419 149.21 10.1719V11.6847C149.21 12.3191 149.326 12.8636 149.558 13.3182C149.79 13.768 150.114 14.1136 150.531 14.3551C150.948 14.5919 151.435 14.7102 151.994 14.7102C152.368 14.7102 152.707 14.6581 153.01 14.554C153.313 14.4451 153.576 14.2865 153.798 14.0781C154.021 13.8698 154.189 13.6117 154.302 13.304L156.703 13.5739C156.551 14.2083 156.263 14.7623 155.837 15.2358C155.415 15.7045 154.875 16.0691 154.217 16.3295C153.559 16.5852 152.806 16.7131 151.959 16.7131ZM161.556 1.95455V16.5H158.985V1.95455H161.556ZM167.339 16.7202C166.647 16.7202 166.025 16.5971 165.471 16.3509C164.922 16.0999 164.486 15.7306 164.164 15.2429C163.847 14.7552 163.688 14.1539 163.688 13.4389C163.688 12.8234 163.802 12.3144 164.029 11.9119C164.256 11.5095 164.566 11.1875 164.959 10.946C165.352 10.7045 165.795 10.5223 166.288 10.3991C166.785 10.2713 167.298 10.179 167.829 10.1222C168.468 10.0559 168.986 9.99669 169.384 9.9446C169.782 9.88778 170.071 9.80256 170.251 9.68892C170.435 9.57055 170.528 9.38826 170.528 9.14205V9.09943C170.528 8.56439 170.369 8.15009 170.052 7.85653C169.734 7.56297 169.278 7.41619 168.681 7.41619C168.051 7.41619 167.552 7.5535 167.182 7.82812C166.818 8.10275 166.572 8.42708 166.444 8.80114L164.043 8.46023C164.233 7.79735 164.545 7.24337 164.981 6.7983C165.416 6.34848 165.949 6.01231 166.579 5.78977C167.208 5.5625 167.904 5.44886 168.667 5.44886C169.192 5.44886 169.716 5.51042 170.236 5.63352C170.757 5.75663 171.233 5.96023 171.664 6.24432C172.095 6.52367 172.44 6.90483 172.701 7.38778C172.966 7.87074 173.099 8.47443 173.099 9.19886V16.5H170.627V15.0014H170.542C170.386 15.3045 170.165 15.5885 169.881 15.8537C169.602 16.1141 169.249 16.3248 168.823 16.4858C168.402 16.642 167.907 16.7202 167.339 16.7202ZM168.006 14.831C168.522 14.831 168.97 14.7292 169.349 14.5256C169.727 14.3172 170.019 14.0426 170.222 13.7017C170.431 13.3608 170.535 12.9891 170.535 12.5866V11.3011C170.454 11.3674 170.317 11.429 170.123 11.4858C169.933 11.5426 169.72 11.5923 169.484 11.6349C169.247 11.6776 169.012 11.7154 168.78 11.7486C168.548 11.7817 168.347 11.8101 168.177 11.8338C167.793 11.8859 167.45 11.9711 167.147 12.0895C166.844 12.2079 166.605 12.3736 166.43 12.5866C166.254 12.795 166.167 13.0649 166.167 13.3963C166.167 13.8698 166.34 14.2273 166.685 14.4688C167.031 14.7102 167.471 14.831 168.006 14.831ZM178.823 16.7202C178.132 16.7202 177.509 16.5971 176.955 16.3509C176.406 16.0999 175.97 15.7306 175.648 15.2429C175.331 14.7552 175.172 14.1539 175.172 13.4389C175.172 12.8234 175.286 12.3144 175.513 11.9119C175.741 11.5095 176.051 11.1875 176.444 10.946C176.837 10.7045 177.279 10.5223 177.772 10.3991C178.269 10.2713 178.783 10.179 179.313 10.1222C179.952 10.0559 180.471 9.99669 180.868 9.9446C181.266 9.88778 181.555 9.80256 181.735 9.68892C181.92 9.57055 182.012 9.38826 182.012 9.14205V9.09943C182.012 8.56439 181.853 8.15009 181.536 7.85653C181.219 7.56297 180.762 7.41619 180.165 7.41619C179.536 7.41619 179.036 7.5535 178.667 7.82812C178.302 8.10275 178.056 8.42708 177.928 8.80114L175.528 8.46023C175.717 7.79735 176.029 7.24337 176.465 6.7983C176.901 6.34848 177.433 6.01231 178.063 5.78977C178.693 5.5625 179.389 5.44886 180.151 5.44886C180.677 5.44886 181.2 5.51042 181.721 5.63352C182.242 5.75663 182.717 5.96023 183.148 6.24432C183.579 6.52367 183.925 6.90483 184.185 7.38778C184.45 7.87074 184.583 8.47443 184.583 9.19886V16.5H182.111V15.0014H182.026C181.87 15.3045 181.65 15.5885 181.366 15.8537C181.086 16.1141 180.734 16.3248 180.307 16.4858C179.886 16.642 179.391 16.7202 178.823 16.7202ZM179.491 14.831C180.007 14.831 180.454 14.7292 180.833 14.5256C181.212 14.3172 181.503 14.0426 181.707 13.7017C181.915 13.3608 182.019 12.9891 182.019 12.5866V11.3011C181.939 11.3674 181.801 11.429 181.607 11.4858C181.418 11.5426 181.205 11.5923 180.968 11.6349C180.731 11.6776 180.497 11.7154 180.265 11.7486C180.033 11.7817 179.832 11.8101 179.661 11.8338C179.278 11.8859 178.934 11.9711 178.631 12.0895C178.328 12.2079 178.089 12.3736 177.914 12.5866C177.739 12.795 177.651 13.0649 177.651 13.3963C177.651 13.8698 177.824 14.2273 178.17 14.4688C178.515 14.7102 178.956 14.831 179.491 14.831ZM189.739 1.95455V16.5H187.168V1.95455H189.739Z" fill="white"/>
<path d="M42.7247 34.5V24.3182H43.9576V33.4062H48.6906V34.5H42.7247ZM53.6423 34.6591C52.9065 34.6591 52.2718 34.4967 51.7381 34.1719C51.2078 33.8438 50.7985 33.3864 50.5102 32.7997C50.2251 32.2098 50.0826 31.5237 50.0826 30.7415C50.0826 29.9593 50.2251 29.2699 50.5102 28.6733C50.7985 28.0734 51.1996 27.6061 51.7133 27.2713C52.2303 26.9332 52.8336 26.7642 53.5229 26.7642C53.9207 26.7642 54.3134 26.8305 54.7012 26.9631C55.089 27.0956 55.442 27.3111 55.7602 27.6094C56.0783 27.9044 56.3319 28.2955 56.5208 28.7827C56.7097 29.2699 56.8042 29.8698 56.8042 30.5824V31.0795H50.9178V30.0653H55.611C55.611 29.6345 55.5248 29.25 55.3525 28.9119C55.1835 28.5739 54.9415 28.3071 54.6266 28.1115C54.3151 27.916 53.9472 27.8182 53.5229 27.8182C53.0556 27.8182 52.6513 27.9342 52.3099 28.1662C51.9718 28.3949 51.7116 28.6932 51.5293 29.0611C51.347 29.429 51.2559 29.8234 51.2559 30.2443V30.9205C51.2559 31.4972 51.3553 31.986 51.5542 32.3871C51.7564 32.7848 52.0364 33.0881 52.3944 33.2969C52.7524 33.5024 53.1683 33.6051 53.6423 33.6051C53.9505 33.6051 54.2289 33.562 54.4775 33.4759C54.7294 33.3864 54.9465 33.2538 55.1288 33.0781C55.3111 32.8991 55.4519 32.6771 55.5514 32.4119L56.6849 32.7301C56.5656 33.1146 56.365 33.4527 56.0833 33.7443C55.8016 34.0327 55.4536 34.258 55.0393 34.4205C54.625 34.5795 54.1593 34.6591 53.6423 34.6591ZM60.8362 34.679C60.3523 34.679 59.9131 34.5878 59.5187 34.4055C59.1243 34.2199 58.8111 33.9531 58.5791 33.6051C58.347 33.2538 58.231 32.8295 58.231 32.3324C58.231 31.8949 58.3172 31.5402 58.4896 31.2685C58.6619 30.9934 58.8923 30.7779 59.1806 30.6222C59.469 30.4664 59.7872 30.3504 60.1352 30.2741C60.4865 30.1946 60.8395 30.1316 61.1941 30.0852C61.6581 30.0256 62.0343 29.9808 62.3227 29.951C62.6143 29.9179 62.8265 29.8632 62.959 29.7869C63.0949 29.7107 63.1629 29.5781 63.1629 29.3892V29.3494C63.1629 28.8589 63.0286 28.4777 62.7602 28.206C62.495 27.9342 62.0923 27.7983 61.5521 27.7983C60.9919 27.7983 60.5528 27.9209 60.2346 28.1662C59.9164 28.4115 59.6927 28.6733 59.5634 28.9517L58.4498 28.554C58.6487 28.09 58.9138 27.7287 59.2453 27.4702C59.58 27.2083 59.9446 27.026 60.339 26.9233C60.7367 26.8172 61.1278 26.7642 61.5123 26.7642C61.7576 26.7642 62.0393 26.794 62.3575 26.8537C62.679 26.91 62.9889 27.0277 63.2872 27.2067C63.5888 27.3857 63.839 27.6558 64.0379 28.017C64.2367 28.3783 64.3362 28.8622 64.3362 29.4688V34.5H63.1629V33.4659H63.1032C63.0237 33.6316 62.8911 33.8089 62.7055 33.9979C62.5199 34.1868 62.2729 34.3475 61.9647 34.4801C61.6565 34.6127 61.2803 34.679 60.8362 34.679ZM61.0151 33.625C61.4792 33.625 61.8703 33.5339 62.1884 33.3516C62.5099 33.1693 62.7519 32.9339 62.9143 32.6456C63.08 32.3572 63.1629 32.054 63.1629 31.7358V30.6619C63.1131 30.7216 63.0038 30.7763 62.8347 30.826C62.669 30.8724 62.4768 30.9138 62.258 30.9503C62.0426 30.9834 61.8321 31.0133 61.6266 31.0398C61.4245 31.063 61.2604 31.0829 61.1345 31.0994C60.8295 31.1392 60.5445 31.2038 60.2793 31.2933C60.0175 31.3795 59.8054 31.5104 59.643 31.6861C59.4839 31.8584 59.4043 32.0937 59.4043 32.392C59.4043 32.7997 59.5551 33.108 59.8568 33.3168C60.1617 33.5223 60.5478 33.625 61.0151 33.625ZM69.3612 34.6591C68.7248 34.6591 68.163 34.4983 67.6758 34.1768C67.1886 33.852 66.8075 33.3946 66.5324 32.8047C66.2573 32.2114 66.1197 31.5104 66.1197 30.7017C66.1197 29.8996 66.2573 29.2036 66.5324 28.6136C66.8075 28.0237 67.1903 27.5679 67.6808 27.2464C68.1713 26.925 68.7381 26.7642 69.3811 26.7642C69.8782 26.7642 70.271 26.8471 70.5593 27.0128C70.851 27.1752 71.0731 27.3608 71.2255 27.5696C71.3813 27.7751 71.5023 27.9441 71.5885 28.0767H71.6879V24.3182H72.8612V34.5H71.7277V33.3267H71.5885C71.5023 33.4659 71.3797 33.6416 71.2206 33.8537C71.0615 34.0625 70.8344 34.2498 70.5395 34.4155C70.2445 34.5779 69.8517 34.6591 69.3612 34.6591ZM69.5203 33.6051C69.9909 33.6051 70.3887 33.4825 70.7135 33.2372C71.0383 32.9886 71.2852 32.6456 71.4542 32.2081C71.6233 31.7673 71.7078 31.2585 71.7078 30.6818C71.7078 30.1117 71.6249 29.6129 71.4592 29.1854C71.2935 28.7545 71.0482 28.4197 70.7234 28.1811C70.3986 27.9392 69.9976 27.8182 69.5203 27.8182C69.0231 27.8182 68.6088 27.9458 68.2774 28.201C67.9493 28.4529 67.7023 28.7959 67.5366 29.2301C67.3742 29.661 67.293 30.1449 67.293 30.6818C67.293 31.2254 67.3759 31.7192 67.5416 32.1634C67.7106 32.6042 67.9592 32.9555 68.2873 33.2173C68.6188 33.4759 69.0298 33.6051 69.5203 33.6051ZM85.9514 24.3182H87.1843V31.0597C87.1843 31.7557 87.0203 32.3771 86.6922 32.924C86.3674 33.4676 85.9083 33.8968 85.315 34.2116C84.7218 34.5232 84.0257 34.679 83.227 34.679C82.4282 34.679 81.7322 34.5232 81.1389 34.2116C80.5456 33.8968 80.0849 33.4676 79.7568 32.924C79.432 32.3771 79.2696 31.7557 79.2696 31.0597V24.3182H80.5025V30.9602C80.5025 31.4574 80.6119 31.8999 80.8307 32.2876C81.0494 32.6721 81.361 32.9754 81.7653 33.1974C82.173 33.4162 82.6602 33.5256 83.227 33.5256C83.7937 33.5256 84.2809 33.4162 84.6886 33.1974C85.0963 32.9754 85.4078 32.6721 85.6233 32.2876C85.842 31.8999 85.9514 31.4574 85.9514 30.9602V24.3182ZM90.2431 24.3182L92.8681 28.554H92.9477L95.5727 24.3182H97.0244L93.8227 29.4091L97.0244 34.5H95.5727L92.9477 30.3438H92.8681L90.2431 34.5H88.7914L92.0727 29.4091L88.7914 24.3182H90.2431ZM105.708 34.5H102.566V24.3182H105.848C106.835 24.3182 107.681 24.522 108.383 24.9297C109.086 25.334 109.624 25.9157 109.999 26.6747C110.374 27.4304 110.561 28.3352 110.561 29.3892C110.561 30.4498 110.372 31.3629 109.994 32.1286C109.616 32.8909 109.066 33.4775 108.343 33.8885C107.621 34.2962 106.743 34.5 105.708 34.5ZM103.799 33.4062H105.629C106.471 33.4062 107.168 33.2438 107.722 32.919C108.275 32.5942 108.688 32.1319 108.96 31.532C109.232 30.9321 109.368 30.2178 109.368 29.3892C109.368 28.5672 109.233 27.8596 108.965 27.2663C108.696 26.6697 108.295 26.2124 107.762 25.8942C107.228 25.5727 106.564 25.4119 105.768 25.4119H103.799V33.4062ZM115.672 34.6591C114.936 34.6591 114.301 34.4967 113.767 34.1719C113.237 33.8438 112.828 33.3864 112.539 32.7997C112.254 32.2098 112.112 31.5237 112.112 30.7415C112.112 29.9593 112.254 29.2699 112.539 28.6733C112.828 28.0734 113.229 27.6061 113.743 27.2713C114.26 26.9332 114.863 26.7642 115.552 26.7642C115.95 26.7642 116.343 26.8305 116.731 26.9631C117.118 27.0956 117.471 27.3111 117.789 27.6094C118.108 27.9044 118.361 28.2955 118.55 28.7827C118.739 29.2699 118.833 29.8698 118.833 30.5824V31.0795H112.947V30.0653H117.64C117.64 29.6345 117.554 29.25 117.382 28.9119C117.213 28.5739 116.971 28.3071 116.656 28.1115C116.344 27.916 115.976 27.8182 115.552 27.8182C115.085 27.8182 114.681 27.9342 114.339 28.1662C114.001 28.3949 113.741 28.6932 113.559 29.0611C113.376 29.429 113.285 29.8234 113.285 30.2443V30.9205C113.285 31.4972 113.385 31.986 113.583 32.3871C113.786 32.7848 114.066 33.0881 114.424 33.2969C114.782 33.5024 115.198 33.6051 115.672 33.6051C115.98 33.6051 116.258 33.562 116.507 33.4759C116.759 33.3864 116.976 33.2538 117.158 33.0781C117.34 32.8991 117.481 32.6771 117.581 32.4119L118.714 32.7301C118.595 33.1146 118.394 33.4527 118.113 33.7443C117.831 34.0327 117.483 34.258 117.069 34.4205C116.654 34.5795 116.189 34.6591 115.672 34.6591ZM126.027 28.5739L124.973 28.8722C124.907 28.6965 124.809 28.5258 124.68 28.3601C124.554 28.1911 124.382 28.0518 124.163 27.9425C123.944 27.8331 123.664 27.7784 123.323 27.7784C122.856 27.7784 122.466 27.8861 122.155 28.1016C121.846 28.3137 121.692 28.5838 121.692 28.9119C121.692 29.2036 121.798 29.4339 122.01 29.603C122.222 29.772 122.554 29.9129 123.005 30.0256L124.138 30.304C124.821 30.4697 125.33 30.7232 125.664 31.0646C125.999 31.4027 126.167 31.8385 126.167 32.3722C126.167 32.8097 126.041 33.2008 125.789 33.5455C125.54 33.8902 125.192 34.1619 124.745 34.3608C124.297 34.5597 123.777 34.6591 123.184 34.6591C122.405 34.6591 121.76 34.4901 121.25 34.152C120.739 33.8139 120.416 33.3201 120.28 32.6705L121.394 32.392C121.5 32.803 121.7 33.1113 121.995 33.3168C122.294 33.5223 122.683 33.625 123.164 33.625C123.711 33.625 124.145 33.509 124.466 33.277C124.791 33.0417 124.954 32.7599 124.954 32.4318C124.954 32.1667 124.861 31.9446 124.675 31.7656C124.49 31.5833 124.204 31.4474 123.82 31.358L122.547 31.0597C121.848 30.8939 121.334 30.6371 121.006 30.2891C120.681 29.9377 120.519 29.4986 120.519 28.9716C120.519 28.5407 120.64 28.1596 120.882 27.8281C121.127 27.4967 121.46 27.2365 121.881 27.0476C122.305 26.8587 122.786 26.7642 123.323 26.7642C124.079 26.7642 124.672 26.9299 125.103 27.2614C125.537 27.5928 125.845 28.0303 126.027 28.5739ZM127.933 34.5V26.8636H129.106V34.5H127.933ZM128.529 25.5909C128.301 25.5909 128.103 25.513 127.938 25.3572C127.775 25.2015 127.694 25.0142 127.694 24.7955C127.694 24.5767 127.775 24.3894 127.938 24.2337C128.103 24.0779 128.301 24 128.529 24C128.758 24 128.954 24.0779 129.116 24.2337C129.282 24.3894 129.365 24.5767 129.365 24.7955C129.365 25.0142 129.282 25.2015 129.116 25.3572C128.954 25.513 128.758 25.5909 128.529 25.5909ZM134.337 37.5227C133.771 37.5227 133.283 37.4498 132.876 37.304C132.468 37.1615 132.128 36.9725 131.857 36.7372C131.588 36.5052 131.374 36.2566 131.215 35.9915L132.15 35.3352C132.256 35.4744 132.39 35.6335 132.553 35.8125C132.715 35.9948 132.937 36.1522 133.219 36.2848C133.504 36.4207 133.877 36.4886 134.337 36.4886C134.954 36.4886 135.463 36.3395 135.864 36.0412C136.265 35.7429 136.465 35.2756 136.465 34.6392V33.0881H136.366C136.28 33.2273 136.157 33.3996 135.998 33.6051C135.842 33.8073 135.617 33.9879 135.322 34.147C135.03 34.3028 134.636 34.3807 134.139 34.3807C133.522 34.3807 132.969 34.2348 132.478 33.9432C131.991 33.6515 131.605 33.2273 131.32 32.6705C131.038 32.1136 130.897 31.4375 130.897 30.642C130.897 29.8598 131.035 29.1787 131.31 28.5987C131.585 28.0154 131.968 27.5646 132.458 27.2464C132.949 26.925 133.515 26.7642 134.158 26.7642C134.656 26.7642 135.05 26.8471 135.342 27.0128C135.637 27.1752 135.862 27.3608 136.018 27.5696C136.177 27.7751 136.3 27.9441 136.386 28.0767H136.505V26.8636H137.639V34.7188C137.639 35.375 137.489 35.9086 137.191 36.3196C136.896 36.7339 136.498 37.0372 135.998 37.2294C135.501 37.425 134.947 37.5227 134.337 37.5227ZM134.298 33.3267C134.768 33.3267 135.166 33.219 135.491 33.0036C135.816 32.7881 136.063 32.4782 136.232 32.0739C136.401 31.6695 136.485 31.1856 136.485 30.6222C136.485 30.072 136.402 29.5864 136.237 29.1655C136.071 28.7446 135.826 28.4148 135.501 28.1761C135.176 27.9375 134.775 27.8182 134.298 27.8182C133.8 27.8182 133.386 27.9441 133.055 28.196C132.727 28.4479 132.48 28.786 132.314 29.2102C132.152 29.6345 132.07 30.1051 132.07 30.6222C132.07 31.1525 132.153 31.6214 132.319 32.0291C132.488 32.4335 132.737 32.7517 133.065 32.9837C133.396 33.2124 133.807 33.3267 134.298 33.3267ZM140.96 29.9062V34.5H139.786V26.8636H140.92V28.0568H141.019C141.198 27.669 141.47 27.3575 141.835 27.1222C142.199 26.8835 142.67 26.7642 143.246 26.7642C143.764 26.7642 144.216 26.8703 144.604 27.0824C144.992 27.2912 145.293 27.6094 145.509 28.0369C145.724 28.4612 145.832 28.9981 145.832 29.6477V34.5H144.658V29.7273C144.658 29.1274 144.503 28.66 144.191 28.3253C143.88 27.9872 143.452 27.8182 142.908 27.8182C142.534 27.8182 142.199 27.8994 141.904 28.0618C141.612 28.2242 141.382 28.4612 141.213 28.7727C141.044 29.0843 140.96 29.4621 140.96 29.9062ZM151.177 34.6591C150.442 34.6591 149.807 34.4967 149.273 34.1719C148.743 33.8438 148.334 33.3864 148.045 32.7997C147.76 32.2098 147.618 31.5237 147.618 30.7415C147.618 29.9593 147.76 29.2699 148.045 28.6733C148.334 28.0734 148.735 27.6061 149.248 27.2713C149.765 26.9332 150.369 26.7642 151.058 26.7642C151.456 26.7642 151.849 26.8305 152.236 26.9631C152.624 27.0956 152.977 27.3111 153.295 27.6094C153.614 27.9044 153.867 28.2955 154.056 28.7827C154.245 29.2699 154.339 29.8698 154.339 30.5824V31.0795H148.453V30.0653H153.146C153.146 29.6345 153.06 29.25 152.888 28.9119C152.719 28.5739 152.477 28.3071 152.162 28.1115C151.85 27.916 151.482 27.8182 151.058 27.8182C150.591 27.8182 150.186 27.9342 149.845 28.1662C149.507 28.3949 149.247 28.6932 149.064 29.0611C148.882 29.429 148.791 29.8234 148.791 30.2443V30.9205C148.791 31.4972 148.89 31.986 149.089 32.3871C149.292 32.7848 149.572 33.0881 149.93 33.2969C150.288 33.5024 150.703 33.6051 151.177 33.6051C151.486 33.6051 151.764 33.562 152.013 33.4759C152.265 33.3864 152.482 33.2538 152.664 33.0781C152.846 32.8991 152.987 32.6771 153.087 32.4119L154.22 32.7301C154.101 33.1146 153.9 33.4527 153.618 33.7443C153.337 34.0327 152.989 34.258 152.574 34.4205C152.16 34.5795 151.694 34.6591 151.177 34.6591ZM156.124 34.5V26.8636H157.258V28.017H157.337C157.476 27.6392 157.728 27.3326 158.093 27.0973C158.457 26.862 158.868 26.7443 159.326 26.7443C159.412 26.7443 159.52 26.746 159.649 26.7493C159.778 26.7526 159.876 26.7576 159.942 26.7642V27.9574C159.903 27.9474 159.811 27.9325 159.669 27.9126C159.53 27.8894 159.382 27.8778 159.226 27.8778C158.855 27.8778 158.524 27.9557 158.232 28.1115C157.944 28.264 157.715 28.4761 157.546 28.7479C157.38 29.0163 157.297 29.3229 157.297 29.6676V34.5H156.124Z" fill="white" fill-opacity="0.6"/>
<defs>
<linearGradient id="paint0_linear_190_820" x1="0" y1="18" x2="31.4918" y2="18" gradientUnits="userSpaceOnUse">
<stop stop-color="#ED0C93"/>
<stop offset="1" stop-color="#C80CED"/>
</linearGradient>
<linearGradient id="paint1_linear_190_820" x1="0" y1="18" x2="31.4918" y2="18" gradientUnits="userSpaceOnUse">
<stop stop-color="#ED0C93"/>
<stop offset="1" stop-color="#C80CED"/>
</linearGradient>
<linearGradient id="paint2_linear_190_820" x1="6.74805" y1="18" x2="24.7434" y2="18" gradientUnits="userSpaceOnUse">
<stop stop-color="#ED0C93"/>
<stop offset="1" stop-color="#C80CED"/>
</linearGradient>
<linearGradient id="paint3_linear_190_820" x1="6.74805" y1="18" x2="24.7434" y2="18" gradientUnits="userSpaceOnUse">
<stop stop-color="#ED0C93"/>
<stop offset="1" stop-color="#C80CED"/>
</linearGradient>
</defs>
</svg>
